<svg xmlns="http://www.w3.org/2000/svg" viewBox="0 0 637.79 666.43"><g id="Livello_2" data-name="Livello 2"><g id="Livello_1-2" data-name="Livello 1"><path d="M573.35,595.39q-28.36,31-56.76,61.9c-10.43,11.35-23.61,12.1-35.43,2.43S458.63,639,447.47,628.55c-9.3-8.71-9.35-23.35-.74-32.94,4.23-4.71,8.46-9.43,12.85-14,2.51-2.59,2.59-4.63-.23-7-4.29-3.7-8.53-7.48-12.51-11.5-3.29-3.33-5.68-2.82-8.62.51-11.21,12.69-24.53,22.53-40.65,28-36.32,12.35-69.81,7.1-100.4-16.41-8.56-6.58-17.82-12.23-26.47-18.7-12.92-9.67-26.52-18.35-39.48-28-6.5-4.83-13.27-9.43-20-14-14.51-10-18.86-24-12.06-40.1,1.72-4.08.93-6.4-2.11-9-5-4.35-9.92-8.9-14.75-13.5-2.49-2.36-4.34-2.09-6.73.3-11.25,11.25-20.52,11.33-32.34.49q-28.2-25.83-56.39-51.69c-10-9.21-11.19-20.5-2.65-31,2.9-3.57,2.9-5.87-.61-8.64a64.45,64.45,0,0,1-7.36-6.75c-3.19-3.46-5.71-3-8.52.51-5.39,6.69-12.45,8.5-20.62,6.33a21.28,21.28,0,0,1-9-5.17c-8.82-8.13-17.76-16.15-26.5-24.36-11.95-11.21-15.09-30-7.35-42.93,9.1-15.15,25.43-21.2,42.28-15.23a43.63,43.63,0,0,1,16.2,10.47c8.7,8.66,19.23,15.47,26.12,26A19.31,19.31,0,0,1,87,334.08c-4.9,5.53-4.9,5.53.55,10.55,2.08,1.92,4.36,3.67,6.23,5.77,3.29,3.68,6.34,3.14,9.2-.24,8.22-9.7,21.79-9.48,31.5-.07q17.77,17.22,36.08,33.84c6.76,6.17,14.14,11.69,20.62,18.12s10.4,13.88,7.14,23.45c-1.13,3.3-3.38,5.72-5.71,8.08-2.64,2.68-2.81,4.95.15,7.55,5.26,4.62,10.4,9.37,15.48,14.18,2.54,2.4,4.5,2,6.73-.42q25.62-28.06,51.37-56c2.43-2.64,2.52-4.69-.24-7.12C261,387.25,256,382.62,251,377.92c-2.73-2.59-5.33-3-7.49.29-8,12.08-23.69,9.16-32.72.79-31.29-29-62.9-57.65-94.22-86.63-6.79-6.29-10.61-14.05-7.42-23.78,1.1-3.32,3.37-5.76,5.75-8,3-2.91,2.73-5.21-.4-7.79s-6.24-5.53-9.22-8.44c-2.41-2.35-4.64-2.53-6.68.26-8.23,11.25-23.5,10.46-33.72.65-12.38-11.88-25.46-23-37.82-34.94-10.62-10.22-15.06-23-10.83-37.36C22,153.3,43,143,63.11,151.54a39.79,39.79,0,0,1,11.57,7.66c13.17,12.27,26.51,24.35,39.76,36.54,9.22,8.49,10,20.46,1.54,29.68-3.29,3.59-3.18,6,.53,8.94a69.29,69.29,0,0,1,7.74,7.09c3.15,3.35,5.5,3,8.56-.38,7-7.79,14.48-9.24,23.82-5.38a19.61,19.61,0,0,1,5.71,4q48.82,44.78,97.64,89.56c9.55,8.76,9.86,21,.71,30.31-2.56,2.61-2.83,4.5,0,7,5.37,4.74,10.62,9.62,15.86,14.51,2.29,2.14,4.25,2.1,6.38-.24q26-28.41,52.07-56.72c2.19-2.36,1.57-4-.42-5.84-5.34-5-10.68-10-15.93-15.07-2.5-2.43-4.51-2.1-6.74.36s-4.45,5.43-7.72,7a18.56,18.56,0,0,1-20.89-3.17q-62.33-57-124.56-114.19c-8.21-7.55-8.51-18.33-1.09-26.69,4.87-5.48,4.83-5.44-.63-10.6-2.29-2.17-4.44-4.5-6.54-6.86-2.66-3-5-3.2-7.9-.08-3.14,3.43-6.46,6.82-11.41,7.61-6.92,1.09-12.9-.08-18.34-5.27-14-13.32-28-26.72-42.79-39.12-12.78-10.71-14.32-35.22-1.74-48.5,13.06-13.79,35.94-13.7,48.18-2,13.62,13,27.73,25.48,41.58,38.23,10.45,9.61,11.12,18.74,2.32,29.69-4.22,5.24-4.22,5.25.83,9.91,2.45,2.26,5.07,4.36,7.33,6.79,3.05,3.27,5.49,2.88,8.14-.49,4.93-6.27,11.29-9.09,19.35-7.49a17.71,17.71,0,0,1,8.78,4.45q62.25,57.12,124.52,114.23c7.86,7.23,8.19,18.37,1.1,26.4-5.47,6.21-5.48,6.22.75,11.95,4.29,4,8.67,7.81,12.88,11.84,2.49,2.38,4.46,2.16,6.73-.33q26.13-28.62,52.36-57.13c1.82-2,2.49-3.5-.08-5.73-5.28-4.58-10.35-9.42-15.23-14.43-3.3-3.4-5.88-3.05-8.52.53-5.11,6.92-11.94,9.13-20.25,7.49a17.78,17.78,0,0,1-8.73-4.57q-49.92-45.8-99.83-91.61c-8.29-7.63-8.54-19.18-1-27.68,5.32-6,5.32-6-.72-11.54-.25-.22-.48-.46-.74-.67-3.07-2.54-5.37-6.76-9.15-7.49-4.19-.8-5.64,4.45-8.63,6.65-7.53,5.56-18,5.59-24.91-.66-15-13.52-29.9-27.07-44.56-40.91-11.38-10.75-13.61-30.38-5.33-42.31C166.35,1.1,183.71-4.09,199.57,3.34A38.27,38.27,0,0,1,209.44,10C223.16,22.63,237,35.19,250.69,47.85c9.17,8.46,9.85,19.95,1.37,29.15-3.4,3.69-3.63,6.25.44,9.3,2.52,1.89,4.7,4.24,7,6.37,4.91,4.45,5.16,4.56,9.48-.34,6.2-7,13.67-8.26,22.23-5.58a16.56,16.56,0,0,1,6.25,4q49.58,45.45,99.12,90.9c8.66,8,9.11,19.23,1.37,28-4.86,5.51-4.87,5.52.63,10.57,4.41,4.06,8.93,8,13.25,12.18,2.37,2.29,4.45,2.61,7.53,1.05,17.08-8.64,31.62-5.21,43.86,9.71,8.34,10.16,17,20,25.55,30,2.79,3.29,4.8,7.19,8.15,10.06,2.16,1.85,3.39,1.76,4.18-1.09q2.81-10.11,5.7-20.18a4.35,4.35,0,0,0-2.21-5.48c-5.76-3.48-10.36-8.36-15.25-12.88-9.4-8.68-13.16-19.3-10.55-32,4.37-21.37,8.59-42.77,13.06-64.12,2.47-11.77,5.13-19.67,23.64-17.12,4.78.65,5.51-.4,3.92-4.83-1.53-4.23-3.11-8.43-4.47-12.71-1.12-3.54-2.52-5.07-6.39-2.75a19.44,19.44,0,0,1-13,2.36c-6.69-1-11.91-4-14.68-10.51-6-14.11-12.54-28-17.86-42.34C458.46,47.31,460.41,33,474.39,21c8.69-7.48,25.14-8.61,36.48-3.47,9.38,4.26,13.9,12,17.67,20.64,4.79,11,9.59,22,14.21,33,4.77,11.42.86,21.48-10.31,27.17-6.23,3.17-6.23,3.17-3.87,9.85,2.21,6.28,4.58,12.51,6.55,18.86,1.1,3.55,3.11,5.32,6.77,5.41,1.66,0,3.32.25,5,.33,11,.47,16.59,5.92,16.92,16.8.49,16.32.8,32.63,1.16,48.95q.85,39,1.65,77.93c.13,6.7-2.28,12-9,14.52-6.34,2.35-12.13,1.31-17.19-3.21-5.72-5.1-11.43-10.22-17-15.45-2.19-2.05-3.54-2.87-4.53,1-2,7.73-4.25,15.4-6.39,23.1-.73,2.62-.07,4.7,1.75,6.85,7.86,9.24,15.93,18.35,23.21,28,15.06,20.05,21.8,42.87,20.48,67.9a97.76,97.76,0,0,1-14.34,46.81A91.15,91.15,0,0,1,530.46,463c-3.13,3.11-3.52,5.55.16,8.58,4.5,3.7,8.7,7.78,12.94,11.78,2.31,2.17,4.25,2.07,6.35-.29,3.88-4.36,7.87-8.62,11.83-12.9,10-10.83,24.7-12,35.79-2.28,10.92,9.53,21.88,19.09,32,29.46,10.35,10.6,11.33,24.64,1,35.79C611.33,553.78,592.39,574.63,573.35,595.39Zm-121.72-168c15,13.73,30,27.38,44.87,41.25,3.52,3.29,5.88,3.18,9-.45,5-5.83,10.24-11.4,15.48-17,16.14-17.17,22.84-37.82,22.84-61,0-4.14-1.23-6-5.8-5.73-16.29.89-32.61,1.28-48.9,2.2a17.31,17.31,0,0,1-13.88-4.89c-29.68-27.52-59.59-54.78-89.38-82.17-2.6-2.39-4.65-3.95-7.8-.47q-24.84,27.39-50,54.51c-2.51,2.71-2.22,4.71.43,7.1q14.64,13.23,29.1,26.67a7.5,7.5,0,0,0,7.25,2.06c9.61-2,19.34-3.47,28.86-5.82,5.87-1.45,10.23-.13,14.52,3.87C422.6,400.93,437.15,414.14,451.63,427.42ZM285.91,399.68c-8.34,9.09-16.6,18.25-25.05,27.22-2.81,3-2.71,5.12.36,7.85,8.95,8,18,15.85,26.45,24.4,5.62,5.72,11.21,8.71,19.35,6.32,4.26-1.25,8.9-1.16,13.35-1.77q39.35-5.4,78.69-10.89c4.81-.68,8.52.57,12.17,4,17.29,16.16,34.87,32,52.21,48.11,3.26,3,5.57,3.33,8.6-.23,4.86-5.71,10.1-11.09,15.14-16.64,4.19-4.61,4.18-4.94-.43-9.17Q444.39,440,402,401.09a9.13,9.13,0,0,0-9-2.47c-9.77,2.12-19.6,3.91-29.38,6-5.31,1.13-9.61.06-13.68-3.82-10.13-9.65-20.66-18.89-30.84-28.5-3.34-3.16-5.62-3-8.61.43C302.45,381.83,294.12,390.7,285.91,399.68ZM562.1,585.37q28.53-31.11,57-62.23c5.51-6,5.28-10.3-.71-15.85q-14.1-13.07-28.33-26c-7.87-7.2-12.74-7-19.89.79q-54.87,59.81-109.72,119.65c-7.64,8.34-7.42,12.76,1,20.55q13.39,12.38,26.88,24.64c7.45,6.79,11.21,6.62,18-.79Q534.27,615.76,562.1,585.37ZM269.48,461.88l.14-.16c-6.13-5.62-12.34-11.17-18.37-16.91-2.66-2.53-4.64-2.38-7.07.31-9.59,10.63-19.42,21-28.94,31.73-5.94,6.67-6.35,14.94-1.13,20.36a71,71,0,0,0,10.17,8.8c19.28,13.59,38.81,26.84,58,40.56,11,7.82,21.69,15.94,33,23.24q28.56,18.42,62,12.21c1.23-.23,3.1.3,3.54-1.16.52-1.7-1.41-2.44-2.44-3.4-10.76-9.94-21.43-20-32.44-29.65a17.4,17.4,0,0,1-6.26-13.45c-.61-17.62-1.57-35.24-2.18-52.86-.14-3.87-.61-5.69-5.33-4.92-11.8,1.92-23.71,3.22-35.58,4.8a10.91,10.91,0,0,1-9.5-3.27C281.33,472.61,275.37,467.28,269.48,461.88ZM439.1,329.22c14.48,13.28,29,26.51,43.4,39.87a10.67,10.67,0,0,0,8.52,3c12.62-.69,25.26-1.17,37.89-1.58,12.86-.41,12.77-.29,7.55-12.12-5-11.44-13-20.69-20.87-30.22-10.88-13.2-22.2-26-33.11-39.17-10.4-12.54-21.25-24.71-31.46-37.4-8.4-10.45-18.78-11.37-27.88-1.59-9.3,10-18.48,20.09-27.69,30.17-4.32,4.72-4.3,5.05.59,9.53Q417.55,309.5,439.1,329.22ZM375.88,555c6.63,6.08,13.33,12.09,19.85,18.28,1.89,1.79,3.6,2.19,5.76.85,7.22-4.45,14.68-8.51,20.5-14.94,10.62-11.74,21.29-23.43,32.14-34.95,3.27-3.48,3.15-5.84-.39-9q-24.3-21.93-48.27-44.24a10.68,10.68,0,0,0-9.49-3.06c-13.34,1.89-26.7,3.73-40.07,5.41-3.38.42-4.48,1.83-4.32,5.18.88,17.81,1.61,35.62,2.34,53.43a7.25,7.25,0,0,0,2.76,5.55C363.18,543.16,369.5,549.09,375.88,555ZM230.5,239.63q30,27.53,60,55c4.52,4.13,6.3,4,10.43-.37,5-5.35,9.92-10.78,14.87-16.19,6.45-7.06,6.4-8.47-.68-15l-105-96.26c-4.18-3.83-8.29-7.73-12.56-11.44-4.48-3.9-7.06-3.74-11.07.56q-8,8.58-15.88,17.3c-4.81,5.29-4.74,7.14.51,12Q200.84,212.47,230.5,239.63Zm106.82-93.07Q313.58,124.78,289.81,103c-4.87-4.44-7.3-4.25-11.75.54-5,5.37-9.91,10.79-14.86,16.19-6.12,6.69-6.06,8.35.76,14.62q26.67,24.51,53.37,49,20.07,18.4,40.15,36.78c5.14,4.68,7.33,4.53,12.07-.6q7.63-8.25,15.2-16.56c5.52-6,5.45-7.9-.67-13.53Q360.73,168,337.32,146.56ZM201.07,295.43q-24.13-22.12-48.28-44.25c-4.59-4.19-6.23-4.12-10.37.33q-8.34,9-16.56,18.06c-4.31,4.76-4.3,7.11.31,11.35q47.87,44,95.81,87.85c4.62,4.24,7,4.06,11.33-.67q8.17-8.79,16.22-17.69c4.58-5.05,4.53-6.36-.56-11.05Q225,317.37,201.07,295.43Zm305.44-56.32c14.28,11.22,27.4,23.77,40.93,35.84,1,.94,2.08,2.56,3.8,1.57,1.35-.79,1-2.39.93-3.68-.2-9.81-.47-19.63-.7-29.44q-1.05-45.92-2-91.82c-.06-2.78-.71-4.31-3.84-4.53-11-.75-21.9-1.67-32.84-2.63-3.33-.3-5.13.55-5.89,4.23-4.53,22.16-9.42,44.25-13.94,66.41-1.34,6.57.18,12.54,5.83,17C501.49,234.22,503.93,236.75,506.51,239.11ZM125.61,416.24l0,0c9.93,9.11,19.89,18.18,29.77,27.34,3.19,3,6,3.06,9-.24,5.91-6.55,11.85-13.06,17.89-19.49,3.31-3.52,3.09-6.87-.29-10q-29.37-27-58.85-54c-3.41-3.11-6.74-3.1-10,.48-5.68,6.31-11.51,12.47-17.17,18.79-4,4.49-3.86,6.32.59,10.43Q111.05,403,125.61,416.24ZM220,39,200.53,21.13l-.75-.65c-9.13-7.54-21-7.57-28.61-.09s-8.2,19.37.1,28.19c13,13.8,27.35,26.24,41.81,38.5,4.52,3.84,7.09,3.7,11-.54q8-8.57,15.86-17.29c4.32-4.81,4.21-8-.48-12.36C233.06,50.88,226.53,45,220,39ZM83.13,187.29,63.25,169.06l-.74-.67a17.62,17.62,0,0,0-6.2-4.08c-8.74-3.09-18.8-.05-23.51,7.2-5.59,8.61-4.55,19.46,3,26.46C49.39,210.69,63.18,223.24,77,235.8c3.89,3.55,7,3.4,10.77-.59q8.61-9.06,16.91-18.39c3.54-4,3.38-6.6-.56-10.27C97.16,200.07,90.12,193.71,83.13,187.29Zm17.2-67c7.12,6.53,14.3,13,21.33,19.62,3.37,3.18,6.22,3.17,9.33-.32,5.43-6.1,11-12,16.53-18.07,5.2-5.69,5.18-7.28-.64-12.65q-18.54-17.11-37.21-34.1a39.79,39.79,0,0,0-5.61-4.14c-9.15-5.73-19.85-4-25.93,4.07-6.76,9-6,19.58,1.94,27C86.78,107.93,93.57,114.08,100.33,120.27ZM484.12,513.61c-9.45,10.3-18.83,20.67-28.39,30.88-2.77,3-2.91,5.14.28,7.83,4.45,3.76,8.69,7.77,12.91,11.78,2.34,2.23,4.3,2.64,6.71,0q29-31.73,58.06-63.32c2.42-2.63,1.83-4.56-.58-6.7-4.24-3.75-8.52-7.47-12.47-11.51-3.26-3.33-5.58-2.93-8.56.43C502.89,493.31,493.45,503.41,484.12,513.61ZM508.86,33.66a20.4,20.4,0,0,0-25-1.39c-7.5,5.09-10.39,15.09-6.52,24.55,5.1,12.46,10.8,24.68,15.87,37.16,1.92,4.74,4.83,5,8.62,3.24C510,93.36,518,89.34,526,85.33c3.94-2,5-4.84,3.13-9.07-5.1-11.57-10-23.24-14.93-34.88A19.64,19.64,0,0,0,508.86,33.66ZM33.69,331.94c4.91,4.49,9.84,9,14.71,13.5,3.19,3,6.23,2.8,9.11-.31,6-6.47,11.94-13,17.9-19.48,3-3.31,2.92-6.71-.25-9.68C66,307.45,57,298.8,47.51,290.73a19.93,19.93,0,0,0-28.61,2.39c-6.55,8-6,21,2.6,27.74C25.8,324.26,29.64,328.23,33.69,331.94Z"/></g></g></svg>